:SAMPLES-PER-SECOND 30
:FULLY-SPECIFIED
:DEGREES
78
root  -41.3548 39.5028 6.69169 6.22065 69.9584 5.19426
RightUpLeg  14.0236 -11.4727 -7.02099
RightLeg  13.0803 1.78826 3.8864
RightFoot  -19.5234 -0.0323738 1.39824
RightToes  0.000482159 0.542163 -0.142577
Spine  8.35586 1.16152 3.62431
Spine1  1.57612 1.95217 -2.27313
HEad  -1.04176 11.9592 -4.48161
LeftShoulder1  6.61799 -10.4041 -41.2477
LeftArm  -10.282 20.8401 -29.8766
LeftForeArm  33.2595 -24.6365 -3.54259
LeftHand  -0.25398 0.0180481 5.50724
RightShoulder  4.07308 7.41253 31.3645
RightArm  -4.16924 -4.65522 33.3416
RightForeArm  -0.342694 33.5282 7.48
RightHand  -1.68619 3.5802 -21.8895
LeftUpLeg  -21.3638 1.62769 -0.255839
LeftLeg  -4.86235 23.7931 -8.22493
LeftFoot  -1.53469 0.349707 -3.97354
LeftToes  1.06245e-005 4.65855e-005 -8.18503e-006
79
root  -39.6105 39.1927 7.18028 7.40425 69.9977 6.89045
RightUpLeg  16.6556 -13.3407 -9.28852
RightLeg  15.1672 5.04634 3.49815
RightFoot  -19.2898 0.137929 3.81489
RightToes  0.000482159 0.542163 -0.142577
Spine  7.71131 1.18624 1.91804
Spine1  2.36637 1.95145 -2.1089
HEad  -0.453594 12.028 -3.5759
LeftShoulder1  6.53792 -10.3163 -40.9872
LeftArm  -9.10083 22.6138 -29.7287
LeftForeArm  32.5149 -21.1799 -3.27177
LeftHand  -0.25398 0.0180481 5.50724
RightShoulder  4.07983 7.42563 31.3817
RightArm  -4.91192 -5.29126 34.2094
RightForeArm  -0.710915 33.8542 7.59049
RightHand  -1.71598 3.63922 -22.1239
LeftUpLeg  -22.2766 1.37831 -2.18533
LeftLeg  0.166042 24.5073 -6.4159
LeftFoot  0.623298 -0.0583829 0.356972
LeftToes  1.06245e-005 4.65855e-005 -8.18503e-006
80
root  -37.7638 38.8916 7.71805 9.72025 70.2857 10.1999
RightUpLeg  19.0323 -14.4135 -12.102
RightLeg  18.6227 8.05593 3.36921
RightFoot  -18.1427 0.380589 8.62611
RightToes  0.000482159 0.542163 -0.142577
Spine  7.45798 1.40513 -1.26254
Spine1  2.47665 1.70659 -0.705521
HEad  0.607389 11.9337 -2.59887
LeftShoulder1  6.45217 -10.1193 -41.0375
LeftArm  -9.0359 24.2897 -29.2321
LeftForeArm  33.2776 -17.0703 -3.77565
LeftHand  -0.25398 0.0180481 5.50724
RightShoulder  4.12399 7.39873 31.8819
RightArm  -4.94484 -7.22217 34.5944
RightForeArm  -0.750728 34.2517 7.70192
RightHand  -1.73069 3.77628 -21.9902
LeftUpLeg  -23.3952 4.29676 -6.21312
LeftLeg  8.42774 18.4202 -2.21081
LeftFoot  4.30677 -0.741991 5.24996
LeftToes  1.06245e-005 4.65855e-005 -8.18503e-006
81
root  -35.9386 38.7286 8.24546 12.4637 70.5726 14.0416
RightUpLeg  18.9515 -12.0736 -13.5001
RightLeg  24.9939 7.28068 3.35372
RightFoot  -13.2399 0.118357 13.8101
RightToes  0.000482159 0.542163 -0.142577
Spine  7.62925 1.62048 -4.43612
Spine1  2.06154 1.4384 0.612104
HEad  1.9067 11.7564 -1.54737
LeftShoulder1  6.39253 -9.91308 -41.3003
LeftArm  -10.0401 25.5769 -28.4037
LeftForeArm  34.7842 -12.5069 -4.4544
LeftHand  -0.25398 0.0180481 5.50724
RightShoulder  4.20171 7.36781 32.7055
RightArm  -4.61693 -9.68424 35.115
RightForeArm  -0.0468683 33.628 7.49155
RightHand  -1.79449 4.16425 -21.8915
LeftUpLeg  -23.8353 10.4955 -11.4915
LeftLeg  15.2017 8.46739 1.66381
LeftFoot  5.37415 -1.14762 7.60931
LeftToes  1.06245e-005 4.65855e-005 -8.18503e-006
82
root  -34.2303 38.7627 8.68637 14.4852 70.3604 16.8989
RightUpLeg  15.0044 -7.72646 -13.2788
RightLeg  34.9853 3.99859 2.7322
RightFoot  -2.21777 -1.14631 14.7868
RightToes  0.000482159 0.542163 -0.142577
Spine  7.81066 1.70839 -6.06574
Spine1  2.00471 1.47231 0.423527
HEad  2.86156 11.7423 -0.788058
LeftShoulder1  6.39072 -9.85036 -41.4962
LeftArm  -10.8961 26.3168 -27.8312
LeftForeArm  35.2484 -8.50427 -4.5237
LeftHand  -0.25398 0.0180481 5.50724
RightShoulder  4.27 7.38635 33.2652
RightArm  -4.08677 -11.6382 36.5667
RightForeArm  0.885394 31.2071 6.80129
RightHand  -1.81589 4.36483 -21.7115
LeftUpLeg  -22.7139 11.2673 -12.9656
LeftLeg  19.5758 7.48402 3.44727
LeftFoot  2.58461 -0.959646 7.70211
LeftToes  1.06245e-005 4.65855e-005 -8.18503e-006
83
root  -32.7041 38.8484 9.03837 15.9634 69.3088 19.0101
RightUpLeg  8.3685 -3.34755 -12.938
RightLeg  46.2907 1.92906 1.88217
RightFoot  10.5082 -2.01311 10.8232
RightToes  0.000482159 0.542163 -0.142577
Spine  7.9262 1.83838 -7.01463
Spine1  2.70005 1.70534 -0.750454
HEad  3.23872 12.295 -0.889868
LeftShoulder1  6.4341 -9.90802 -41.6066
LeftArm  -11.1627 26.8021 -27.8785
LeftForeArm  34.5022 -6.35917 -4.18123
LeftHand  -0.25398 0.0180481 5.50724
RightShoulder  4.33069 7.50525 33.3929
RightArm  -2.38047 -12.5595 38.5736
RightForeArm  1.25509 27.5921 5.88476
RightHand  -1.62532 3.76574 -20.6999
LeftUpLeg  -20.5575 11.5095 -13.528
LeftLeg  21.9465 8.91402 4.25959
LeftFoot  -1.40992 -0.642776 7.49497
LeftToes  1.06245e-005 4.65855e-005 -8.18503e-006
84
root  -31.2599 38.9606 9.36857 16.619 68.077 20.2834
RightUpLeg  1.51244 0.0356266 -12.8947
RightLeg  55.8407 1.04609 1.22808
RightFoot  16.5569 -1.52224 6.48898
RightToes  0.000482159 0.542163 -0.142577
Spine  8.1152 1.97482 -8.16547
Spine1  3.50393 1.68397 -1.20276
HEad  3.42324 13.4275 -1.84435
LeftShoulder1  6.47188 -9.928 -41.8027
LeftArm  -11.5517 27.2428 -28.3592
LeftForeArm  34.2636 -6.24266 -4.04158
LeftHand  -0.25398 0.0180481 5.50724
RightShoulder  4.39957 7.66617 33.4425
RightArm  1.05115 -12.8711 40.1105
RightForeArm  1.33518 24.1967 5.13211
RightHand  -1.30216 2.60979 -19.0074
LeftUpLeg  -17.809 12.7962 -14.1011
LeftLeg  22.675 8.74899 4.35126
LeftFoot  -4.51071 -0.412951 7.35892
LeftToes  1.06245e-005 4.65855e-005 -8.18503e-006
85
root  -29.7434 39.3116 9.70665 15.5151 67.929 19.6388
RightUpLeg  -4.1456 1.25794 -12.3226
RightLeg  61.3023 -0.0213724 -0.559184
RightFoot  15.237 -0.880666 4.16906
RightToes  0.000482159 0.542163 -0.142577
Spine  8.23055 1.66349 -8.50736
Spine1  3.85417 1.19708 -0.459062
HEad  3.92895 14.5516 -2.89047
LeftShoulder1  6.47394 -9.85042 -42.0767
LeftArm  -11.604 27.2833 -29.0064
LeftForeArm  34.7418 -7.23445 -4.18112
LeftHand  -0.25398 0.0180481 5.50724
RightShoulder  4.44955 7.7388 33.6319
RightArm  4.23765 -13.5373 40.8581
RightForeArm  2.70113 22.0108 4.81857
RightHand  -1.10815 1.82658 -17.939
LeftUpLeg  -13.6665 13.5507 -13.3766
LeftLeg  20.9287 8.16115 3.56798
LeftFoot  -6.12981 -0.266735 6.65539
LeftToes  1.06245e-005 4.65855e-005 -8.18503e-006
86
root  -28.2272 39.711 10.0359 13.1214 68.8273 17.2794
RightUpLeg  -8.99903 0.73077 -10.997
RightLeg  62.5887 -1.13118 -2.90655
RightFoot  10.9678 -0.739616 4.15141
RightToes  0.000482159 0.542163 -0.142577
Spine  8.10877 1.05592 -7.66533
Spine1  4.08521 0.501066 0.320703
HEad  4.82178 15.0993 -3.33527
LeftShoulder1  6.45944 -9.77255 -42.2384
LeftArm  -11.3498 26.4944 -29.6846
LeftForeArm  35.6078 -8.44375 -4.46556
LeftHand  -0.25398 0.0180481 5.50724
RightShoulder  4.43939 7.67764 33.7561
RightArm  5.10344 -15.1622 41.2635
RightForeArm  5.31577 21.1181 4.82493
RightHand  -1.1281 1.85202 -18.17
LeftUpLeg  -9.28937 12.2927 -11.3223
LeftLeg  18.5452 9.20282 2.37046
LeftFoot  -7.38882 -0.151249 5.67696
LeftToes  1.06245e-005 4.65855e-005 -8.18503e-006
87
root  -26.7398 39.9989 10.3486 10.1672 70.1273 14.0798
RightUpLeg  -13.3375 -0.475743 -9.2267
RightLeg  60.4339 -2.0125 -4.34487
RightFoot  7.9907 -0.673211 4.25898
RightToes  0.000482159 0.542163 -0.142577
Spine  7.82724 0.426906 -6.16447
Spine1  4.38766 -0.147941 0.622776
HEad  5.72604 15.1014 -3.25627
LeftShoulder1  6.48144 -9.79777 -42.3066
LeftArm  -10.8992 24.9314 -30.3204
LeftForeArm  36.2147 -9.81493 -4.71295
LeftHand  -0.25398 0.0180481 5.50724
RightShoulder  4.37877 7.57124 33.5911
RightArm  4.71233 -17.5515 41.6312
RightForeArm  6.30479 21.0923 4.77909
RightHand  -1.23803 2.2529 -18.9044
LeftUpLeg  -5.33932 9.44149 -9.0677
LeftLeg  16.3811 11.3815 0.964761
LeftFoot  -8.68437 -0.0727712 5.42089
LeftToes  1.06245e-005 4.65855e-005 -8.18503e-006
88
root  -25.2687 40.2128 10.645 6.99275 71.4196 10.7876
RightUpLeg  -16.7367 -1.80406 -7.34049
RightLeg  55.3238 -2.93171 -4.96257
RightFoot  6.17425 -0.44524 3.15946
RightToes  0.000482159 0.542163 -0.142577
Spine  7.91382 -0.0786468 -4.72456
Spine1  4.46429 -0.716215 1.10699
HEad  6.29385 14.9144 -3.11359
LeftShoulder1  6.57301 -9.92455 -42.5132
LeftArm  -10.057 22.8818 -30.8153
LeftForeArm  36.2501 -11.5431 -4.82474
LeftHand  -0.25398 0.0180481 5.50724
RightShoulder  4.30993 7.50377 33.2103
RightArm  4.33123 -20.0081 41.7615
RightForeArm  5.01474 21.2611 4.81563
RightHand  -1.29163 2.48047 -19.156
LeftUpLeg  -1.353 6.28004 -7.30353
LeftLeg  13.83 13.2842 -0.483472
LeftFoot  -9.67546 -0.0232602 5.5965
LeftToes  1.06245e-005 4.65855e-005 -8.18503e-006
89
root  -23.8429 40.2811 10.9602 4.91464 72.5041 8.92116
RightUpLeg  -18.7809 -3.27523 -5.92948
RightLeg  47.3957 -4.11842 -5.09776
RightFoot  3.91746 -0.35951 2.90537
RightToes  0.000482159 0.542163 -0.142577
Spine  8.61993 -0.332101 -4.33463
Spine1  4.26609 -1.22023 2.01902
HEad  6.38876 14.6699 -3.04451
LeftShoulder1  6.70016 -10.078 -42.8691
LeftArm  -8.59017 20.4213 -31.1714
LeftForeArm  35.8292 -13.4835 -4.80066
LeftHand  -0.25398 0.0180481 5.50724
RightShoulder  4.25529 7.46563 32.8494
RightArm  4.14724 -21.9117 41.5386
RightForeArm  3.42533 21.0475 4.94167
RightHand  -1.27498 2.47377 -18.9303
LeftUpLeg  2.3336 4.28073 -6.38108
LeftLeg  11.9745 14.0427 -1.5025
LeftFoot  -10.9442 0.046446 5.32696
LeftToes  1.06245e-005 4.65855e-005 -8.18503e-006
90
root  -22.4062 40.1409 11.3332 4.97087 73.4855 9.28968
RightUpLeg  -19.603 -5.57564 -5.06091
RightLeg  36.7763 -5.04294 -4.32182
RightFoot  2.4291 -0.441312 3.7807
RightToes  0.000482159 0.542163 -0.142577
Spine  9.23971 -0.441149 -5.06137
Spine1  4.19658 -1.66908 2.96755
HEad  6.00323 14.3176 -2.86728
LeftShoulder1  6.80299 -10.211 -43.1211
LeftArm  -6.49351 17.5754 -31.4584
LeftForeArm  34.9556 -15.5045 -4.62976
LeftHand  -0.25398 0.0180481 5.50724
RightShoulder  4.22291 7.43148 32.6747
RightArm  3.44797 -23.002 41.1561
RightForeArm  3.72929 20.0446 5.15235
RightHand  -1.26566 2.49271 -18.7533
LeftUpLeg  5.35755 3.76427 -6.13733
LeftLeg  11.6656 13.7189 -2.00177
LeftFoot  -12.9112 0.146739 4.97162
LeftToes  1.06245e-005 4.65855e-005 -8.18503e-006
91
root  -20.9018 39.941 11.7322 5.99832 74.5683 10.3602
RightUpLeg  -19.6663 -9.79259 -3.80789
RightLeg  23.9484 -4.04292 -2.29926
RightFoot  2.6848 -0.501897 4.21955
RightToes  0.000482159 0.542163 -0.142577
Spine  9.17774 -0.675093 -5.68798
Spine1  4.52381 -2.13611 3.80477
HEad  5.34608 13.913 -2.5563
LeftShoulder1  6.87459 -10.3372 -43.1819
LeftArm  -4.10522 14.6401 -31.6154
LeftForeArm  33.6002 -17.7036 -4.25119
LeftHand  -0.25398 0.0180481 5.50724
RightShoulder  4.21599 7.40887 32.6912
RightArm  1.58829 -23.3596 40.7725
RightForeArm  6.34328 18.0055 5.58834
RightHand  -1.28644 2.60071 -18.8074
LeftUpLeg  8.37774 3.88475 -5.94601
LeftLeg  11.0722 12.6485 -2.52865
LeftFoot  -14.6504 0.236572 5.11556
LeftToes  1.06245e-005 4.65855e-005 -8.18503e-006
92
root  -19.351 39.7255 12.135 7.5768 75.7339 11.7642
RightUpLeg  -19.0037 -12.7244 -3.25813
RightLeg  10.3913 -3.26496 1.06745
RightFoot  2.67449 -0.629773 5.29274
RightToes  0.000482159 0.542163 -0.142577
Spine  8.81435 -1.00822 -5.97211
Spine1  4.88495 -2.63367 4.56493
HEad  4.78593 13.4922 -2.34175
LeftShoulder1  6.94309 -10.4626 -43.224
LeftArm  -2.20155 11.94 -31.5906
LeftForeArm  32.3151 -19.9279 -3.76002
LeftHand  -0.25398 0.0180481 5.50724
RightShoulder  4.21871 7.39193 32.7761
RightArm  -1.61728 -23.2918 40.3763
RightForeArm  10.331 15.0693 6.19394
RightHand  -1.27257 2.50751 -18.8187
LeftUpLeg  11.381 4.12915 -5.63489
LeftLeg  10.1573 10.9134 -3.05802
LeftFoot  -16.2088 0.299765 4.80266
LeftToes  1.06245e-005 4.65855e-005 -8.18503e-006
